/* XPM */
static char *_788c7e603ac424fef116d3b6a15a4f6u49lvzsOoeWW6fAt[] = {
/* columns rows colors chars-per-pixel */
"32 32 11 1 ",
"  c #606070",
". c #BA6156",
"X c #EB564B",
"o c #E36956",
"O c #3CA370",
"+ c yellow",
"@ c #FFB570",
"# c #8FDE5D",
"$ c #BBE95F",
"% c #CFFF70",
"& c #C2C2D1",
/* pixels */
"@@oooo@@@o@o@@@@oo@ooo@@@@ooo@o@",
"@.OOOO...O.O....OO.OOO....OOO.Oo",
"oO####OOO#O#OOOO##O###OOOO###O.@",
"@.O#%%###%#%####%%#%%%####%%#O.@",
"oO#%%%%%%%%%%%%$%%%%%%%%%%%%%#Oo",
"@.O#%#%#%%%...........%%#%%%#O.@",
"oO#%%%#%%%.o.oo.oo.ooo.%#%#%%#Oo",
"@.O#%%%%%.XX&XX&XX&XXXo.%#%%#O.@",
"oO#%%%%%..XX.XX.XX.XXXX..%%%%#Oo",
"oO#%%%%.X.XX.XX.XX.XXXX.o.%%%#Oo",
"@.O#%%%.X.XX.XX.XX.XXXX.X.%%#O.@",
"oO#%%%.oX&XX&XX&XX&XXXX&Xo.%%#Oo",
"@.O#%%.oX.XX.XX.XX.XXXX.Xo.%%#Oo",
"@.O#%%+oX.XX.XX.XX.XXXX.Xo.$%#Oo",
"@.O#%#+oX.XX.XX.XX.XXXX.Xo.$#O.@",
"oO#%%#+oX&XX&XX&XX&XXXX&Xo.%#O.@",
"@.O#%%.oX.XX.XX.XX.XXXX.Xo.%#O.@",
"@.O#%%.oX.XX.XX.XX.XXXX.Xo.%#O.@",
"oO#%%%.oX.XX.XX.XX.XXXX.Xo.%#O.@",
"oO#%%%.oX&XX&XX&XX&XX X&Xo.#%#Oo",
"@.O#%%.oX.XX.XX.XX.X   .Xo.##O.@",
"oO#%%%.oX.XX.XX.XX.XX X.Xo.%#O.@",
"@.O#%%.oX.XX.XX.XX.XXXX.Xo.%%#Oo",
"@.O#%%.oX&XX&XX&XX&XXXX&Xo.%#O.@",
"@.O#%%+oX.XX.XX.XX.XXXX.Xo.%%#Oo",
"@.O#%%+oX.XX.XX.XX.XXXX.Xo.%#O.@",
"oO#%$%+oX.XX.XX.XX.XXXX.Xo.%%#Oo",
"@.O#$%.oX&XX&XX&XX&XXXX&Xo.$#O.@",
"@.O###.oX.XX.XX.XX.XXXX.Xo.###Oo",
"@.O#OO.oX.XX.XX.XX.XXXX.Xo.OO#Oo",
"oO...........................O.@",
"oo@@@@o@oooo@ooo@@ooo@o@o@@@@o@@"
};
