/* XPM */
static char *a5fc8dfcb7274b7dd59ee3d18c60078aY7j1DUY1pIWvwkVQ[] = {
/* columns rows colors chars-per-pixel */
"32 32 7 1 ",
"  c #BA6156",
". c #E36956",
"X c #3CA370",
"o c #FFB570",
"O c #8FDE5D",
"+ c #BBE95F",
"@ c #CFFF70",
/* pixels */
"oo....ooo.o.oooo..o...oooo...o.o",
"o XXXX   X X    XX XXX    XXX X.",
".XOOOOXXXOXOXXXXOOXOOOXXXXOOOX o",
"o XO@@OOO@O@OOOO@@O@@@OOOO@@OX o",
".XO@@@@@@@@@@@@+@@@@@@@@@@@@@OX.",
"o XO@O@O@@@@@+@+@@@@@@@@O@@@OX o",
".XO@@@O@@@@@@@+@@@@O@@@@O@O@@OX.",
"o XO@@@@@@@@@@@@@O@O@@@@@O@@OX o",
".XO@@@@@O@O@@@@@@@O@@@@@@@@@@OX.",
".XO@@@@@@O@@@@@@@@@@@@+@+@@@@OX.",
"o XO@@@@@@@@@@@@@@@@@@@+@@@@OX o",
".XO@@@@@@@+@@@@@@+@@@@@@@@@@@OX.",
"o XO@@@@+@+@@@@@@+@+@@@@@@@@@OX.",
"o XO@@@@@+@@@@@@@@+@@@@@@@@+@OX.",
"o XO@O@@@@@@@@O@@@@@@@@@O@@+OX o",
".XO@@O@O@@@@O@O@@@@@@@O@O@@@OX o",
"o XO@@O@@@@@@O@@@@@@@@@O@@@@OX o",
"o XO@@@@@@@@@@@@@@@@@@@@@@@@OX o",
".XO@@@@@@@@+@@@@@@@+@+@@@@@@OX o",
".XO@@@@@@+@+@@@@@@@@+@@@@@@O@OX.",
"o XO@@@@@@+@@@@@@@@@@@@@@O@OOX o",
".XO@@@@@@@@@@@@@@@@@@@@@@@O@OX o",
"o XO@@O@@@@@@@@@@@@@@@@@@@@@@OX.",
"o XO@@O@O@@@@@O@O@@@@@@@@@@@OX o",
"o XO@@@O@@@@@@@O@@@+@O@O@@@@@OX.",
"o XO@@@@@@@@@@@@@+@+@@O@@@+@OX o",
".XO@+@@@@+@+@@@@@@+@@@@@@@+@@OX.",
"o XO+@@@@@+@@@@@@@@@@@@@@@@+OX o",
"o XOOO@O@@@@O@@@OO@@@O@O@OOOOOX.",
"o XOXXOXOOOOXOOOXXOOOXOXOXXXXOX.",
".X    X XXXX XXX  XXX X X    X o",
"..oooo.o....o...oo...o.o.oooo.oo"
};
