/* XPM */
static char *c045aafb17f04fdd9bb7cd56764c7fc1[] = {
/* columns rows colors chars-per-pixel */
"32 32 3 1 ",
"  c None",
". c black",
"X c #3E2347",
/* pixels */
"                                ",
"                                ",
"             ......             ",
"           ..XXXXXX..           ",
"          .XXXXXXXXXX.          ",
"         .XXXXXXXXXXXX.         ",
"         .XXXXXXXXXXXX.         ",
"        .XXXXXXXXXXXXXX.        ",
"        .XXXXXXXXXXXXXX.        ",
"        .XXXXXXXXXXXXXX.        ",
"        .XXXXXXXXXXXXXX.        ",
"        .XXXXXXXXXXXXXX.        ",
"        .XXXXXXXXXXXXXX.        ",
"         .XXXXXXXXXXXX.         ",
"         .XXXXXXXXXXXX.         ",
"          .XXXXXXXXXX.          ",
"           ..XXXXXX...          ",
"           .X......XXX.         ",
"          .XXXXXXXXXXX.         ",
"         .XXXXXXXXXXXX.         ",
"         .XXXXXXXXXXXX.         ",
"         .XX.XXXXXX.XX.         ",
"         .XX.XXXXXX.XX.         ",
"         .XX.XXXXXX.XX.         ",
"         .XX.XXXXXX...          ",
"         .XX.XXXXXX.            ",
"          ...XX..XX.            ",
"            .XX..XX.            ",
"            .XX..XX.            ",
"            .XX. ..             ",
"            .XX.                ",
"             ..                 "
};
