/* XPM */
static char *_a0c3140ebfa4c4afda4d43e98ded16848Wpfgm546wM16h8[] = {
/* columns rows colors chars-per-pixel */
"32 32 13 1 ",
"  c #43434F",
". c #606070",
"X c #BA6156",
"o c #E36956",
"O c #3CA370",
"+ c #DFE300",
"@ c yellow",
"# c #F7FC08",
"$ c #FCFF2D",
"% c #FFB570",
"& c #8FDE5D",
"* c #BBE95F",
"= c #CFFF70",
/* pixels */
"%%oooo%%%o%o%%%%oo%ooo%%%%ooo%o%",
"%XOOOOXXXOXOXXXXOOXOOOXXXXOOOXOo",
"oO&&&&OOO&O&OOOO&&O&&&OOOO&&&OX%",
"%XO&==&&&=&=&&&&==&===&&&&==&OX%",
"oO&============*=============&Oo",
"%XO&=&=&=====*=*========&===&OX%",
"oO&===&======++++++&====&=&==&Oo",
"%XO&=======++$$$$$$++====&==&OX%",
"oO&=====&++@@@@@@@@$$++======&Oo",
"oO&=====+@@@@@@@@@@@@$$+*====&Oo",
"%XO&====+@@@$$$@@@@@@@@+====&OX%",
"oO&====+@@@$$$@@@@@@@@@$+====&Oo",
"%XO&===+@@$$$@@@@@@@@@@@+====&Oo",
"%XO&==+@@$$@@@@  @@@@@@@$+=*=&Oo",
"%XO&=&+@$$$@@@@ .@@@@@@@@+=*&OX%",
"oO&==&+@$$@@@@@ .@@@@@@@@+==&OX%",
"%XO&==+@$$@@@@@ .@@@@@@@@+==&OX%",
"%XO&==+@@@@@@@@ .@@@@@@@@+==&OX%",
"oO&===+@@@@@@@@..@@@@@@@@+==&OX%",
"oO&====+@@@@@@@##@@@@@@@+==&=&Oo",
"%XO&===+@@@@@@@@@@@@@@@@+&=&&OX%",
"oO&=====+@@@@@@@@@@@@@@+==&=&OX%",
"%XO&==&=+@@@@@@@@@@@@@@+=====&Oo",
"%XO&==&=&++@@@@@@@@@@++=====&OX%",
"%XO&===&===++@@@@@@++&=&=====&Oo",
"%XO&=========++++++*==&===*=&OX%",
"oO&=*====*=*======*=======*==&Oo",
"%XO&*=====*================*&OX%",
"%XO&&&=&====&===&&===&=&=&&&&&Oo",
"%XO&OO&O&&&&O&&&OO&&&O&O&OOOO&Oo",
"oOXXXXOXOOOOXOOOXXOOOXOXOXXXXOX%",
"oo%%%%o%oooo%ooo%%ooo%o%o%%%%o%%"
};
