/* XPM */
static char *_955a960e07a41b88a130ecbd3696debYTpssMeoXQOPkiJn[] = {
/* columns rows colors chars-per-pixel */
"32 32 2 1 ",
"  c None",
". c black",
/* pixels */
"             .....              ",
"           ..     ..            ",
"          .         .           ",
"         .           .          ",
"         .           .          ",
"        .   .     .   .         ",
"        .   .     .   .         ",
"        .   .     .   .         ",
"        .             .         ",
"        .             .         ",
"         .           .          ",
"         .   .....   .          ",
"          .         .           ",
"           ..     ..            ",
"             .....              ",
"              ...               ",
"             .   .              ",
"            ..   ..             ",
"           ..     ..            ",
"          . .     . .           ",
"         . ..     .. .          ",
"         . ..     .. .          ",
"         . ..     .. .          ",
"         . ..     .. .          ",
"          . .     . .           ",
"             .   .              ",
"             .   .              ",
"            .......             ",
"           .  . .  .            ",
"           .  . .  .            ",
"            ..   ..             ",
"                                "
};
