/* XPM */
static char *_71d20ad59174827b49fd441d43b4c497BmR9tNaUfhn3wei[] = {
/* columns rows colors chars-per-pixel */
"32 32 2 1 ",
"  c None",
". c black",
/* pixels */
"                                ",
"             .....              ",
"           ..     ..            ",
"          .         .           ",
"         .       .   .          ",
"         .       .   .          ",
"        .        .    .         ",
"        .        .    .         ",
"        .             .         ",
"        .             .         ",
"        .             .         ",
"         .           .          ",
"         .      ......          ",
"          .         .           ",
"           ..     ..            ",
"             .....              ",
"              ...               ",
"             .   .              ",
"             . . .              ",
"            . . . .             ",
"            . . . .             ",
"            . . . .             ",
"            . . . .             ",
"            . . . .             ",
"            .  .  .             ",
"            .     .             ",
"             .   .              ",
"             .  ..              ",
"             ...  .             ",
"             . .  .             ",
"             .  ..              ",
"              ..                "
};
