/* XPM */
static char *_1afdf07172545abb304edc81687703cFLoBUTx9RfWoZiy6[] = {
/* columns rows colors chars-per-pixel */
"32 32 9 1 ",
"  c black",
". c #3E2347",
"X c #BA6156",
"o c #E36956",
"O c #3CA370",
"+ c #FFB570",
"@ c #8FDE5D",
"# c #BBE95F",
"$ c #CFFF70",
/* pixels */
"+o+ooo++++ooo+oo++++o+o+++oooo++",
"oOXOOOXXXXOOOXOOXXXXOXOXXXOOOOX+",
"+XO@@@OOOO@@@      O@O@OOO@@@@Oo",
"+XO@$$@@@@$  ......  @$@@@$$@OX+",
"oO@$$$$$$$ .......... $$$$$$$@Oo",
"+XO@$$$@$ ............ $@$@$@OX+",
"oO@$$@$@$ ............ $$@$$$@Oo",
"+XO@$$@$ .............. $$$$@OX+",
"oO@$$$$$ .............. $$$$$@Oo",
"oO@$$$$# ..   ....   .. $$$$$@Oo",
"+XO@$$$$ ... ...... ... $$$$@OX+",
"oO@$$$$$ .............. $$$$$@Oo",
"oO@$$$$$ .............. $$$$@OX+",
"oO@$#$$$$ ............ $$$$$@OX+",
"+XO@#$$@$ ...      ... $$$@$@OX+",
"+XO@$$$@$@ .......... $$@$@$$@Oo",
"+XO@$$$$@$$  ......   $$$@$$@OX+",
"+XO@$$$$$$@ .      ... $$$$$@OX+",
"+XO@$$$$$@ ........... $$$$$$@Oo",
"oO@$@$$$$ ............ $$$$$$@Oo",
"+XO@@$@$$ ............ $$$$$@OX+",
"+XO@$@$$$ .. ...... .. $$$$$$@Oo",
"oO@$$$$$$ .. ...... .. $$@$$@OX+",
"+XO@$$$$$ .. ...... .. @$@$$@OX+",
"oO@$$$$$@ .. .......  $$@$$$@OX+",
"+XO@$#$$$ .. ...... $$$$$$$$@OX+",
"oO@$$#$$$$  ...  .. #$#$$$$#$@Oo",
"+XO@#$$$$$$$ ..  .. $#$$$$$#@OX+",
"oO@@@@@$@$@$ ..  .. $$$$@$@@@OX+",
"oO@OOOO@O@O@ .. $  $@@@@O@OO@OX+",
"+XOXXXXOXOXO .. $$@$OOOOXOXXXXOo",
"++o++++o+o+oo  +ooo+oooo+o++++oo"
};
