/* XPM */
static char *f4f7ae7a129c4fd08a53a478ddb63974FKZWWdSJUbegw8de[] = {
/* columns rows colors chars-per-pixel */
"32 32 10 1 ",
"  c #272736",
". c #43434F",
"X c #606070",
"o c #BA6156",
"O c #E36956",
"+ c #3CA370",
"@ c #FFB570",
"# c #8FDE5D",
"$ c #BBE95F",
"% c #CFFF70",
/* pixels */
"@@OOOO@@@O@O@@@@OO@OOO@@@@OOO@O@",
"@o++++ooo+o+oooo++o+++oooo+++o+O",
"O+####+++#+#++++##+###++++###+o@",
"@o+#%%###%#%### %%#%%%####%%#+o@",
"O+#%%%%%%%%%%%% %%%%%%%%%%%%%#+O",
"@o+#%#%#%%%%%$   %%%%%%%#%%%#+o@",
"O+#%%%#%%%%%%% . %%#%% %#%#%%#+O",
"@o+#%%%%%%% %  .  %    %%#%%#+o@",
"O+#%%%%%#%#%  ... # .. %%%%%%#+O",
"O+#%%%%%  %%  .X. % .  %$%%%%#+O",
"@o+#%%%% . %% .X.   . %$%%%%#+o@",
"O+#%%%%%%     .X.  .X %% %%%%#+O",
"@o+#%% %$ ...  XX XX.   %%%%%#+O",
"@o+#%%% % .XX      X     %%$%#+O",
"@o+#%#%              ...   $#+o@",
"O+#%    . XX          XX..   +o@",
"@o    ...XXX       XX...   %#+o@",
"@o+#%              X.    %%%#+o@",
"O+#%%%%  ..X          %  %%%#+o@",
"O+#%%%  ..  X      X. %%  %#%#+O",
"@o+#%%     .XX   X.X.  %%#%##+o@",
"O+#%%%  % ..   X   ...  %%#%#+o@",
"@o+#%%#%% .  % .X.       %%%%#+O",
"@o+#%%#%    %% .X. %  %%%%%%#+o@",
"@o+#%%%#   %%%  .. $% %#%%%%%#+O",
"@o+#%%%% %%%%%% . %$%%#%%%$%#+o@",
"O+#%$%%%%$%$%%%   $%%%%%%%$%%#+O",
"@o+#$%%%%%$%%%%% %%%%%%%%%%$#+o@",
"@o+###%#%%%%#%%% #%%%#%#%#####+O",
"@o+#++#+####+###++###+#+#++++#+O",
"O+oooo+o++++o+++oo+++o+o+oooo+o@",
"OO@@@@O@OOOO@OOO@@OOO@O@O@@@@O@@"
};
