/* XPM */
static char *_fe710fbd10a4ca4a54eb64009f4ca0b[] = {
/* columns rows colors chars-per-pixel */
"32 32 3 1 ",
"  c None",
". c black",
"X c #3E2347",
/* pixels */
"                                ",
"                                ",
"             ......             ",
"           ..XXXXXX..           ",
"          .XXXXXXXXXX.          ",
"         .XXXXXXXXXXXX.         ",
"         .XXXXXXXXXXXX.         ",
"        .XXXXXXXXXXXXXX.        ",
"        .XXX...XXXXXXXX.        ",
"        .XXXX.XXXXXXXXX.        ",
"        .XXXXXXXXXXXXXX.        ",
"        .XXXXXXXXXXXXXX.        ",
"        .XXXXXXXXXXXXXX.        ",
"         .....XXXXXXXX.         ",
"         .XXXXXXXXXXXX.         ",
"          .XXXXXXXXXX.          ",
"           ..XXXXXX..           ",
"             ......             ",
"            .XXXXXX.            ",
"            .XXXXXX.            ",
"           .XXXXXXXX.           ",
"          .XXXXXXXXX.           ",
"          .X.XXXX.XX.           ",
"           ..XXXXX.X.           ",
"            .XXXXXX.            ",
"            .XXXXX.             ",
"           .XXXXXXX.            ",
"          .XXXX.XXX.            ",
"          .XXX. .XX.            ",
"          .XX.  .XX.            ",
"           ..    ..             ",
"                                "
};
