/* XPM */
static char *_f73217f6e1640e0a3d6a372ad1f2b8f[] = {
/* columns rows colors chars-per-pixel */
"32 32 3 1 ",
"  c None",
". c black",
"X c #3E2347",
/* pixels */
"                                ",
"                                ",
"             ......             ",
"           ..XXXXXX..           ",
"          .XXXXXXXXXX.          ",
"         .XXXXXXXXXXXX.         ",
"         .XXXXXXXXXXXX.         ",
"        .XXXXXXXXXXXXXX.        ",
"        .XXXXXXXX...XXX.        ",
"        .XXXXXXXXX.XXXX.        ",
"        .XXXXXXXXXXXXXX.        ",
"        .XXXXXXXXXXXXXX.        ",
"        .XXXXXXXXXXXXXX.        ",
"         .XXXXXXXX.....         ",
"         .XXXXXXXXXXXX.         ",
"          .XXXXXXXXXX.          ",
"           ..XXXXXX..           ",
"             ......             ",
"            .XXXXXX.            ",
"            .XXXXXX.            ",
"           .XXXXXXXX.           ",
"           .XXXXX.XXX.          ",
"           .X.XXXX.XX.          ",
"           .X.XXXXX..           ",
"            ..XXXXX.            ",
"             .XXXXX.            ",
"            .XXXXXXX.           ",
"            .XXX.XXXX.          ",
"            .XX. .XXX.          ",
"            .XX.  .XX.          ",
"             ..    ..           ",
"                                "
};
