/* XPM */
static char *_9731b835f4c428faaee6f558efb1365[] = {
/* columns rows colors chars-per-pixel */
"32 32 3 1 ",
"  c None",
". c black",
"X c #3E2347",
/* pixels */
"                                ",
"                                ",
"             ......             ",
"           ..XXXXXX..           ",
"          .XXXXXXXXXX.          ",
"         .XXXXXXXXXXXX.         ",
"         .XXXXXXXXXXXX.         ",
"        .XXXXXXXXXXXXXX.        ",
"        .XXXXXXXXXXXXXX.        ",
"        .XX...XXXX...XX.        ",
"        .XXX.XXXXXX.XXX.        ",
"        .XXXXXXXXXXXXXX.        ",
"        .XXXXXXXXXXXXXX.        ",
"         .XXXXXXXXXXXX.         ",
"         .XXX......XXX.         ",
"          .XXXXXXXXXX.          ",
"          ...XXXXXX..           ",
"         .XXX......X.           ",
"         .XXXXXXXXXXX.          ",
"         .XXXXXXXXXXXX.         ",
"         .XXXXXXXXXXXX.         ",
"         .XX.XXXXXX.XX.         ",
"         .XX.XXXXXX.XX.         ",
"         .XX.XXXXXX.XX.         ",
"          ..XXXXXXX.XX.         ",
"            .XXXXXX.XX.         ",
"            .XX..XXX..          ",
"            .XX..XX.            ",
"            .XX..XX.            ",
"             .. .XX.            ",
"                .XX.            ",
"                 ..             "
};
