/* XPM */
static char *ef87a671844d4d818fc0e76e207eee54fFxWIcu8tjsgMF71[] = {
/* columns rows colors chars-per-pixel */
"32 32 9 1 ",
"  c black",
". c #3E2347",
"X c #BA6156",
"o c #E36956",
"O c #3CA370",
"+ c #FFB570",
"@ c #8FDE5D",
"# c #BBE95F",
"$ c #CFFF70",
/* pixels */
"++oooo+++o+o++++oo+ooo++++ooo+o+",
"+XOOOOXXXOXOXXXXOOXOOOXXXXOOOXOo",
"oO@@@@OOO@O@O      @@@OOOO@@@OX+",
"+XO@$$@@@$@  ......  $@@@@$$@OX+",
"oO@$$$$$$$ .......... $$$$$$$@Oo",
"+XO@$@$@$ ............ $@$$$@OX+",
"oO@$$$@$$ ............ $@$@$$@Oo",
"+XO@$$$$ .............. $@$$@OX+",
"oO@$$$$$ ...   ........ $$$$$@Oo",
"oO@$$$$$ .... ......... #$$$$@Oo",
"+XO@$$$$ .............. $$$$@OX+",
"oO@$$$$$ .............. $$$$$@Oo",
"+XO@$$$$ .............. $$$$$@Oo",
"+XO@$$$$$     ........ $$$$#$@Oo",
"+XO@$@$$$ ............ $@$$#@OX+",
"oO@$$@$@$$ .......... @$@$$$@OX+",
"+XO@$$@$$$$  ......  $$@$$$$@OX+",
"+XO@$$$$$$$$$      $$$$$$$$$@OX+",
"oO@$$$$$$$#$ ...... #$#$$$$$@OX+",
"oO@$$$$$$$$# ...... $#$$$$$@$@Oo",
"+XO@$$$$$$$ ... .... $$$$@$@@OX+",
"oO@$$$$$$$ ... ..... $$$$$@$@OX+",
"+XO@$$@$$$ .. .... . $@$$$$$$@Oo",
"+XO@$$@$@$$  ..... . $@$@$$$@OX+",
"+XO@$$$@$$$$ .....  $$$@$$$$$@Oo",
"+XO@$$$$$$$@ ..... $$$$$$$#$@OX+",
"oO@$#$$$$#$ .. .... $$$$$$#$$@Oo",
"+XO@#$$$$$ .... .... $$$$$$#@OX+",
"+XO@@@$@$$ ... $ ... @$@$@@@@@Oo",
"+XO@OO@O@@ .. @$$ .. O@O@OOOO@Oo",
"oOXXXXOXOOO  $@@$$  OXOXOXXXXOX+",
"oo++++o+oooo+ooo++ooo+o+o++++o++"
};
