/* XPM */
static char *_1b503d88208406fbc226927eb84ac7cQFnukJXT9SbltFDu[] = {
/* columns rows colors chars-per-pixel */
"32 32 4 1 ",
"  c #272736",
". c #964253",
"X c #BA6156",
"o c #E36956",
/* pixels */
"XXXX. .XXXXXX. .XooXXX. .XoXX. .",
"XXXoX. .X...X. .XoXXXX. .XoXX. .",
"..XXoX. .   . ...XXXX. .XoXXX. .",
"  .XXX.. ... .   .... .XoX... .X",
".. .X.  .XXX. ...    .XoX.   .XX",
"XX. . ..XooX. .......XoX. ... .X",
"XXX. .XXoXXX..    .X..X. .XXX. .",
"XXX. .XoXX..  .... .  .. .XoXX. ",
"XXX. .XXX.  ..XXXX. ..  .XooXX. ",
"X.. . .X. ..XXoXX. .XX.. .XXXXX.",
".  .. .X. .XooXX. .XoXXX. .XXXXX",
" ..XX. .. .XoXXX. .ooXXX. .XXXXo",
".XXoX. .X. .XXXX. .XXXXX. .XXXXo",
"XooXX. .X. .X... . ....X .XXXXXX",
"oXXXX. .oX. .   .X.    . .X....X",
"XXXXX. .XXX. ... .X.... ...    .",
"XXXX. .XXX. .XXX. .XXXX.   .... ",
"XXXXX. ... .XXoX. .XooXX...XXX. ",
"XX...X.   .XXoX. .XXoXXXXXXooo. ",
"X.   . ...XXoXXX. .XoXXXXXXXoX. ",
". ... .XXXooXXXX. .XXXXXXXXoXXX.",
" .XXX. .XXoXXXXXX. .XXXXXXXXXXX ",
".XoX. .XXoXXXXXXXX. ..XXXXXXXXX.",
"XoX. .XXXXXXXXXXXoX.  .XXXXoXX. ",
"oXXX. .XX..XXXXXXXXX.. ..XooX. .",
"XXoXX. ..  .XXXoooXX. .  ..X. .X",
"XXXoXX.  .. .XXXoXX. .X..  . .Xo",
"XXXXXXX..XX. .X.X.. .XXXX.. .Xoo",
"XXXXXXXXXooX. . .  .XoooXXX.XooX",
"XXXXXXXXXoX. . . ..XooXXXXXXXXXX",
"oXXXXXXXoXX. ..X. .XoXXXXXXXXXXX",
"oXXXXXXXoX. .XXXX. .XXXXXXXXXXXX"
};
