/* XPM */
static char *_1eb545af5234cd4f3777f85471389b4wRDRf4ZO49lqjw2I[] = {
/* columns rows colors chars-per-pixel */
"32 32 6 1 ",
"  c #57294B",
". c #8C3F5D",
"X c #964253",
"o c #BA6156",
"O c #E36956",
"+ c #FFB570",
/* pixels */
"++OOOO+++O+O++++OO+OOO++++OOO+O+",
"+oX   ooo   oooo  o   oooo   oXO",
"OX XXX.  . X    XX. XX     XX o+",
"+o ... .....XXXX.. ...XXXXX . o+",
"OX .. ............ ........ .XXO",
"+o .. ............ ....... .. o+",
"OX .. ......  .   ..... . ...XXO",
"+oX .X    . XX ....... X .... o+",
"OX. ..XXXX ... ...... .. ....XXO",
"OX X...... ...X ...  ...X ....XO",
"+o .... .  ....X . ...... ... o+",
"OX ..... .X ....X ....... ...XXO",
"+o .... ...X ....   ..... ....XO",
"+o .... ....X .. XXX   ..X .. XO",
"+o ....X ....X  ....XXX .. .. o+",
"OX ..... ..... ........      Xo+",
"+o   .  ...... ....... XXXXXX o+",
"+o XX ........ ...... ....... o+",
"OX .. ........ ...... ....... o+",
"OX ..X  ...... ......X ......XXO",
"+o ...XX   .  ........X ..... o+",
"OX ..... XX XX  .......X .... o+",
"+o .....X ....XX ..    .X ...XXO",
"+o ...... ...... .. XXX . ... o+",
"+oX ..... ...... . ....X X...XXO",
"+o. ....  ......  ...... .....o+",
"OX X  .  .......XX ..... .....XO",
"+o .X  ...........X .... .... o+",
"+o ..XX .......... X.... ....XXO",
"+oX    X ..   ..  X..   X    .XO",
"O  oooXoXXXXoXXXooXXXoXoXooooXo+",
"OO++++O+OOOO+OOO++OOO+O+O++++O++"
};
